<svg width="80" height="80" viewBox="0 0 80 80" xmlns="http://www.w3.org/2000/svg">
<path d="M40 80C36.3095 80 32.7679 79.5238 29.375 78.5714C25.9821 77.619 22.7976 76.2798 19.8214 74.5536C16.8452 72.8274 14.1518 70.744 11.7411 68.3036C9.33036 65.8631 7.24702 63.1696 5.49107 60.2232C3.73512 57.2768 2.38095 54.0923 1.42857 50.6696C0.47619 47.247 0 43.6905 0 40C0 36.3095 0.47619 32.7679 1.42857 29.375C2.38095 25.9821 3.72024 22.7976 5.44643 19.8214C7.17262 16.8452 9.25595 14.1518 11.6964 11.7411C14.1369 9.33036 16.8304 7.24702 19.7768 5.49107C22.7232 3.73512 25.9077 2.38095 29.3304 1.42857C32.753 0.47619 36.3095 0 40 0C43.6905 0 47.2321 0.47619 50.625 1.42857C54.0179 2.38095 57.2024 3.72024 60.1786 5.44643C63.1548 7.17262 65.8482 9.25595 68.2589 11.6964C70.6696 14.1369 72.753 16.8304 74.5089 19.7768C76.2649 22.7232 77.619 25.9077 78.5714 29.3304C79.5238 32.753 80 36.3095 80 40C80 43.6905 79.5238 47.2321 78.5714 50.625C77.619 54.0179 76.2798 57.2024 74.5536 60.1786C72.8274 63.1548 70.744 65.8482 68.3036 68.2589C65.8631 70.6696 63.1696 72.753 60.2232 74.5089C57.2768 76.2649 54.0923 77.619 50.6696 78.5714C47.247 79.5238 43.6905 80 40 80ZM40 5.71429C35.2679 5.71429 30.8333 6.60714 26.6964 8.39286C22.5595 10.1786 18.9286 12.6339 15.8036 15.7589C12.6786 18.8839 10.2232 22.5149 8.4375 26.6518C6.65179 30.7887 5.74405 35.2381 5.71429 40C5.71429 44.7321 6.60714 49.1667 8.39286 53.3036C10.1786 57.4405 12.6339 61.0714 15.7589 64.1964C18.8839 67.3214 22.5149 69.7768 26.6518 71.5625C30.7887 73.3482 35.2381 74.256 40 74.2857C44.7321 74.2857 49.1667 73.3929 53.3036 71.6071C57.4405 69.8214 61.0714 67.3661 64.1964 64.2411C67.3214 61.1161 69.7768 57.4851 71.5625 53.3482C73.3482 49.2113 74.256 44.7619 74.2857 40C74.2857 35.2679 73.3929 30.8333 71.6071 26.6964C69.8214 22.5595 67.3661 18.9286 64.2411 15.8036C61.1161 12.6786 57.4851 10.2232 53.3482 8.4375C49.2113 6.65179 44.7619 5.74405 40 5.71429ZM40 40V17.1429H34.2857V45.7143H57.1429V40H40Z"/>
</svg>
