<svg xmlns="http://www.w3.org/2000/svg" width="24" height="24"><path d="M21 1.4H3L0 10v.8c0 1.2.6 2.2 1.4 2.9v8.9h21.2v-8.9c.8-.7 1.4-1.7 1.4-2.8V10l-3-8.6zm1.3 8.1h-4.1L17 2.9h3l2.3 6.6zM1.4 10.9h4.2c0 1.2-1 2.1-2.1 2.1s-2.1-1-2.1-2.1zm9.9 0c0 1.2-1 2.1-2.1 2.1-1.2 0-2.1-1-2.1-2.1h4.2zM7.2 9.5l1.2-6.6h2.9v6.6H7.2zm5.5 0V2.8h2.9l1.2 6.6h-4.1zm4.2 1.4c0 1.2-1 2.1-2.1 2.1s-2.1-1-2.1-2.1h4.2zM4 2.8h2.9L5.8 9.5H1.7L4 2.8zm17.2 18.4H2.8v-6.9c.2 0 .5.1.7.1 1.2 0 2.2-.6 2.8-1.4.7.8 1.7 1.4 2.9 1.4s2.2-.6 2.8-1.4c.6.9 1.7 1.4 2.8 1.4s2.2-.6 2.8-1.4c.6.9 1.7 1.4 2.8 1.4.2 0 .5 0 .7-.1v6.9zm-.7-8.2c-1.2 0-2.1-1-2.1-2.1h4.2c0 1.1-1 2.1-2.1 2.1z"/></svg>