<?xml version="1.0" encoding="utf-8"?>
<!-- Generator: Adobe Illustrator 23.1.0, SVG Export Plug-In . SVG Version: 6.00 Build 0)  -->
<svg version="1.1" id="Слой_1" xmlns="http://www.w3.org/2000/svg" xmlns:xlink="http://www.w3.org/1999/xlink" x="0px" y="0px"
	 width="20px" height="20px" viewBox="0 0 20 20" style="enable-background:new 0 0 20 20;" xml:space="preserve">
<path d="M18.9,17.5l-3.7-3.7c1-1.3,1.6-2.9,1.6-4.7c0-4.2-3.4-7.7-7.7-7.7c-4.2,0-7.7,3.4-7.7,7.7
	c0,4.2,3.4,7.7,7.7,7.7c1.8,0,3.4-0.6,4.7-1.6l3.7,3.7L18.9,17.5z M3.5,9.2C3.5,6,6,3.5,9.2,3.5s5.7,2.5,5.7,5.7
	c0,1.5-0.6,2.9-1.6,3.9l-0.1,0.1c-1,1-2.4,1.6-3.9,1.6C6,14.8,3.5,12.3,3.5,9.2z"/>
</svg>
