<svg width="24" height="24" viewBox="0 0 24 24" xmlns="http://www.w3.org/2000/svg">
<path d="M18.8323 14.2148C19.1761 14.2148 19.5042 14.2773 19.8167 14.4023C20.1292 14.5273 20.4104 14.7148 20.6604 14.9648L23.2386 17.543C23.4808 17.7852 23.6644 18.0625 23.7894 18.375C23.9144 18.6875 23.9808 19.0195 23.9886 19.3711C23.9886 19.7148 23.9261 20.043 23.8011 20.3555C23.6761 20.668 23.4886 20.9492 23.2386 21.1992L23.0745 21.3633C22.6526 21.7852 22.2659 22.1602 21.9144 22.4883C21.5628 22.8164 21.1956 23.0898 20.8128 23.3086C20.43 23.5273 20.0042 23.6992 19.5354 23.8242C19.0667 23.9492 18.5081 24.0078 17.8597 24C16.8831 24 15.8792 23.8477 14.8479 23.543C13.8167 23.2383 12.7933 22.8164 11.7776 22.2773C10.762 21.7383 9.76201 21.0977 8.77764 20.3555C7.79326 19.6133 6.86748 18.8047 6.00029 17.9297C5.13311 17.0547 4.32842 16.125 3.58623 15.1406C2.84404 14.1562 2.21123 13.1562 1.68779 12.1406C1.16436 11.125 0.750293 10.1055 0.445605 9.08203C0.140918 8.05859 -0.00751953 7.07422 0.000292969 6.12891C0.000292969 5.48047 0.0549805 4.92578 0.164355 4.46484C0.27373 4.00391 0.441699 3.58203 0.668262 3.19922C0.894824 2.81641 1.16826 2.45312 1.48857 2.10938C1.80889 1.76562 2.18389 1.37891 2.61357 0.949219L2.80107 0.761719C3.04326 0.519531 3.32061 0.332031 3.63311 0.199219C3.94561 0.0664062 4.27764 0 4.6292 0C4.97295 0 5.30107 0.0664062 5.61357 0.199219C5.92607 0.332031 6.20732 0.519531 6.45732 0.761719L9.03545 3.33984C9.27764 3.58203 9.46123 3.85938 9.58623 4.17188C9.71123 4.48438 9.77764 4.81641 9.78545 5.16797C9.78545 5.51172 9.72686 5.81641 9.60967 6.08203C9.49248 6.34766 9.34795 6.59375 9.17607 6.82031C9.0042 7.04688 8.8167 7.24609 8.61357 7.41797C8.41045 7.58984 8.21904 7.76562 8.03936 7.94531C7.85967 8.125 7.71514 8.29688 7.60576 8.46094C7.49639 8.625 7.43779 8.81641 7.42998 9.03516C7.42998 9.33203 7.53545 9.58594 7.74639 9.79688L14.2034 16.2539C14.4144 16.4648 14.6683 16.5703 14.9651 16.5703C15.1683 16.5703 15.3558 16.5117 15.5276 16.3945C15.6995 16.2773 15.8753 16.1328 16.055 15.9609C16.2347 15.7891 16.4104 15.6016 16.5823 15.3984C16.7542 15.1953 16.9534 15.0039 17.18 14.8242C17.4065 14.6445 17.6487 14.5 17.9065 14.3906C18.1644 14.2812 18.4729 14.2227 18.8323 14.2148ZM17.8597 22.5C18.4222 22.5 18.8909 22.4492 19.2659 22.3477C19.6409 22.2461 19.9847 22.0938 20.2972 21.8906C20.6097 21.6875 20.9065 21.4375 21.1878 21.1406C21.469 20.8438 21.8011 20.5078 22.1839 20.1328C22.3948 19.9219 22.5003 19.668 22.5003 19.3711C22.5003 19.2305 22.4456 19.0664 22.3362 18.8789C22.2269 18.6914 22.0784 18.4883 21.8909 18.2695C21.7034 18.0508 21.5042 17.8359 21.2933 17.625C21.0823 17.4141 20.8636 17.2031 20.637 16.9922C20.4104 16.7812 20.2112 16.5977 20.0394 16.4414C19.8675 16.2852 19.7229 16.1484 19.6058 16.0312C19.3948 15.8203 19.137 15.7148 18.8323 15.7148C18.6292 15.7148 18.4417 15.7734 18.2698 15.8906C18.0979 16.0078 17.9261 16.1523 17.7542 16.3242C17.5823 16.4961 17.4065 16.6836 17.2269 16.8867C17.0472 17.0898 16.844 17.2812 16.6175 17.4609C16.3909 17.6406 16.1487 17.7852 15.8909 17.8945C15.6331 18.0039 15.3245 18.0625 14.9651 18.0703C14.6214 18.0703 14.2933 18.0078 13.9808 17.8828C13.6683 17.7578 13.387 17.5703 13.137 17.3203L6.67998 10.8633C6.43779 10.6211 6.2542 10.3438 6.1292 10.0312C6.0042 9.71875 5.93779 9.38672 5.92998 9.03516C5.92998 8.69141 5.98857 8.38672 6.10576 8.12109C6.22295 7.85547 6.36748 7.60938 6.53936 7.38281C6.71123 7.15625 6.89873 6.95703 7.10186 6.78516C7.30498 6.61328 7.49639 6.43359 7.67607 6.24609C7.85576 6.05859 8.00029 5.88672 8.10967 5.73047C8.21904 5.57422 8.27764 5.38672 8.28545 5.16797C8.28545 4.86328 8.17998 4.60547 7.96904 4.39453C7.86748 4.29297 7.73467 4.15234 7.57061 3.97266C7.40654 3.79297 7.22295 3.59375 7.01982 3.375C6.8167 3.15625 6.60576 2.9375 6.38701 2.71875C6.16826 2.5 5.94951 2.29688 5.73076 2.10938C5.51201 1.92188 5.31279 1.77734 5.13311 1.67578C4.95342 1.57422 4.78545 1.51562 4.6292 1.5C4.33232 1.5 4.07842 1.60547 3.86748 1.81641L2.87139 2.8125C2.58232 3.10156 2.33232 3.39844 2.12139 3.70312C1.91045 4.00781 1.7542 4.34766 1.65264 4.72266C1.55107 5.09766 1.49639 5.56641 1.48857 6.12891C1.48857 7.00391 1.6292 7.90625 1.91045 8.83594C2.1917 9.76562 2.58623 10.6953 3.09404 11.625C3.60186 12.5547 4.19951 13.4688 4.88701 14.3672C5.57451 15.2656 6.32451 16.1211 7.13701 16.9336C7.94951 17.7461 8.80498 18.4883 9.70342 19.1602C10.6019 19.832 11.5159 20.418 12.4456 20.918C13.3753 21.418 14.2972 21.8047 15.2112 22.0781C16.1253 22.3516 17.0081 22.4922 17.8597 22.5Z"/>
</svg>
