<svg xmlns="http://www.w3.org/2000/svg" width="24" height="24"><path d="M11.9 10.7c-1.4-2.5-2.7-4.6-2.8-4.6-.1-.2-.3-.3-.5-.3-.3 0-.5.1-.6.3 0 0-1.4 2.1-2.8 4.6C3.4 14 2.4 16.5 2.4 18c0 1.7.6 3.3 1.8 4.4 1.2 1 2.7 1.6 4.4 1.6 1.7 0 3.2-.6 4.3-1.6 1.2-1.1 1.8-2.7 1.8-4.4 0-1.5-.9-4-2.8-7.3zM8.6 22.6c-2.8 0-4.8-1.9-4.8-4.6 0-2.2 3-7.5 4.8-10.2 1.7 2.7 4.8 8 4.8 10.2-.1 2.7-2 4.6-4.8 4.6zM19.9 3C19.1 1.5 18.3.3 18.3.3c-.2-.2-.4-.3-.6-.3s-.5.1-.6.3c0 .1-.8 1.3-1.6 2.7-1.1 2.1-1.7 3.5-1.7 4.5 0 1.1.4 2.1 1.2 2.8.7.7 1.7 1 2.8 1 1.1 0 2-.4 2.8-1 .8-.7 1.2-1.7 1.2-2.8-.2-.9-.8-2.4-1.9-4.5zm-2.2 6.9c-1.5 0-2.5-1-2.5-2.4 0-1 1.4-3.6 2.5-5.5 1.1 1.9 2.5 4.4 2.5 5.5 0 1.4-1 2.4-2.5 2.4z"/></svg>