<svg xmlns="http://www.w3.org/2000/svg" width="20" height="20"><path d="M18.6 6.5c-.7-1.7-2-3.1-3.6-4s-3.5-1.2-5.3-1C7.8 1.8 6.1 2.7 4.9 4L2.7 6V3.3c0-.6-.4-1-1-1s-1 .4-1 1v5.3c0 .1.1.1.1.2 0 0 0 .1.1.1.1.2.2.2.3.3l.1.1h5.3c.6 0 1-.4 1-1s-.4-1-1-1H4.2l2-1.9c1-1 2.3-1.6 3.7-1.8 1.4-.2 2.8.1 4.1.7s2.2 1.8 2.8 3c.6 1.3.7 2.7.4 4.1-.3 1.4-1.1 2.6-2.1 3.5-1.1.9-2.4 1.4-3.8 1.5-1.4.1-2.8-.3-4-1.1-1.2-.8-1.9-1.9-1.9-2.9 0-.6-.4-1-1-1s-1 .4-1 1c0 1.7 1 3.4 2.8 4.6 1.4.9 3.1 1.4 4.7 1.4h.5c1.8-.1 3.6-.8 5-2s2.4-2.8 2.8-4.6c.3-1.7.1-3.6-.6-5.3z"/></svg>