<svg xmlns="http://www.w3.org/2000/svg" width="24" height="24"><path d="M19.2 16.7c-1.4 0-2.2.5-2.8 1-.6.4-1 .7-2 .7s-1.4-.3-2-.7c-.6-.5-1.4-1-2.8-1s-2.2.5-2.8 1c-.6.4-1 .7-2 .7s-1.4-.3-2-.7c-.6-.5-1.4-1-2.8-1v1.4c1 0 1.4.3 2 .7.6.5 1.4 1 2.8 1s2.2-.5 2.8-1c.6-.4 1-.7 2-.7s1.4.3 2 .7c.6.5 1.4 1 2.8 1s2.2-.5 2.8-1c.6-.4 1-.7 2-.7s1.4.3 2 .7c.6.5 1.4 1 2.8 1v-1.4c-1 0-1.4-.3-2-.7-.6-.5-1.4-1-2.8-1zm0-8.3c-1.4 0-2.2.5-2.8 1-.6.4-1 .7-2 .7s-1.4-.3-2-.7c-.6-.5-1.4-1-2.8-1s-2.2.5-2.8 1c-.6.4-1 .7-2 .7s-1.4-.3-2-.7c-.6-.5-1.4-1-2.8-1v1.4c1 0 1.4.3 2 .7.6.5 1.4 1 2.8 1s2.2-.5 2.8-1c.6-.4 1-.7 2-.7s1.4.3 2 .7c.6.5 1.4 1 2.8 1s2.2-.5 2.8-1c.6-.4 1-.7 2-.7s1.4.3 2 .7c.6.5 1.4 1 2.8 1v-1.4c-1 0-1.4-.3-2-.7-.6-.5-1.4-1-2.8-1zm0 4.1c-1.4 0-2.2.5-2.8 1-.6.4-1 .7-2 .7s-1.4-.3-2-.7c-.6-.5-1.4-1-2.8-1s-2.2.5-2.8 1c-.6.4-1 .7-2 .7s-1.4-.3-2-.7c-.6-.5-1.4-1-2.8-1v1.4c1 0 1.4.3 2 .7.6.5 1.4 1 2.8 1s2.2-.5 2.8-1c.6-.4 1-.7 2-.7s1.4.3 2 .7c.6.5 1.4 1 2.8 1s2.2-.5 2.8-1c.6-.4 1-.7 2-.7s1.4.3 2 .7c.6.5 1.4 1 2.8 1v-1.4c-1 0-1.4-.3-2-.7-.6-.5-1.4-1-2.8-1zM22 5.2c-.6-.5-1.4-1-2.8-1s-2.2.5-2.8 1c-.6.4-1 .7-2 .7s-1.4-.3-2-.7c-.6-.5-1.4-1-2.8-1s-2.2.5-2.8 1c-.6.4-1 .7-2 .7s-1.4-.3-2-.7c-.6-.5-1.4-1-2.8-1v1.4c1 0 1.4.3 2 .7.6.5 1.4 1 2.8 1s2.2-.5 2.8-1c.6-.4 1-.7 2-.7s1.4.3 2 .7c.6.5 1.4 1 2.8 1s2.2-.5 2.8-1c.6-.4 1-.7 2-.7s1.4.3 2 .7c.6.5 1.4 1 2.8 1V5.9c-1 0-1.4-.3-2-.7z"/></svg>