<svg width="80" height="80" viewBox="0 0 80 80" xmlns="http://www.w3.org/2000/svg"><path d="M47.1967 0C29.1089 0 14.3933 14.7156 14.3933 32.8033C14.3933 40.7245 17.2156 47.9993 21.9073 53.6743L0 75.5817L4.41833 80L26.3257 58.092C32.0007 62.7844 39.2755 65.6067 47.1967 65.6067C65.2844 65.6067 80 50.8911 80 32.8033C80 14.7156 65.2844 0 47.1967 0ZM47.1967 59.3585C32.5543 59.3585 20.6415 47.4457 20.6415 32.8033C20.6415 18.161 32.5543 6.24817 47.1967 6.24817C61.839 6.24817 73.7518 18.161 73.7518 32.8033C73.7518 47.4457 61.839 59.3585 47.1967 59.3585ZM62.1082 22.3102L51.615 32.8033L62.1082 43.2965L57.6898 47.7148L47.1967 37.2217L36.7035 47.7148L32.2852 43.2965L42.7783 32.8033L32.2852 22.3102L36.7035 17.8918L47.1967 28.385L57.6898 17.8918L62.1082 22.3102Z"/></svg>