<svg width="35" height="24" xmlns="http://www.w3.org/2000/svg"><path d="M7.796 17.594c.95 0 1.804.409 2.395 1.058a3.233 3.233 0 012.396-1.058c1.239 0 2.317.696 2.858 1.715h7.948V8.116a.83.83 0 01.833-.827H31.8c.366 0 .69.237.797.584l1.864 6.01c.025.078.037.16.037.243v6.01a.83.83 0 01-.834.827h-2.957c-.087 1.69-1.5 3.037-3.224 3.037-1.725 0-3.138-1.348-3.225-3.037h-8.447c-.087 1.69-1.5 3.037-3.224 3.037-.95 0-1.804-.409-2.396-1.058A3.233 3.233 0 017.796 24c-1.78 0-3.229-1.437-3.229-3.203 0-1.766 1.449-3.203 3.229-3.203zm23.388-8.651h-2.538v4.356h3.89l-1.352-4.356zm-3.701 13.403c.86 0 1.561-.695 1.561-1.549s-.7-1.55-1.561-1.55-1.562.696-1.562 1.55c0 .854.7 1.55 1.562 1.55zm0-4.752c1.239 0 2.317.696 2.858 1.715h2.49v-4.357h-5.018a.83.83 0 01-.834-.826V8.943h-1.92v9.74a3.233 3.233 0 012.424-1.09zm-14.896 4.752c.86 0 1.561-.695 1.561-1.549s-.7-1.55-1.561-1.55c-.862 0-1.562.696-1.562 1.55 0 .854.7 1.55 1.562 1.55zm-4.791 0c.861 0 1.562-.695 1.562-1.549s-.7-1.55-1.562-1.55c-.861 0-1.562.696-1.562 1.55 0 .854.7 1.55 1.562 1.55z" /><path d="M1.212 8.67l4.25-3.623a.834.834 0 01.24-.143l8.602-3.331a.84.84 0 01.397-.051l3.961.443c.308.034.57.235.683.521l2.41 6.125a.822.822 0 01-.146.843l-2.611 2.988a.834.834 0 01-.327.229L10.068 16a.84.84 0 01-.275.056l-5.6.191a.834.834 0 01-.805-.525L.978 9.597a.823.823 0 01.234-.928zm12.922-5.256l-7.05 2.73 3.154 8.016 7.05-2.73-3.154-8.016zm3.841.139l-2.089-.234 2.756 7.005 1.377-1.576-2.044-5.195zM4.727 14.575l3.834-.13-2.905-7.383-2.91 2.48 1.98 5.033z"/></svg>