<svg xmlns="http://www.w3.org/2000/svg" width="24" height="24"><path d="M8.5 15.6c.8.3 1.4 1.1 1.4 2v.7h1.4v-.7c0-1.1-.6-2.2-1.4-2.8.9-.6 1.4-1.7 1.4-2.8v-.7H9.9v.7c0 .9-.6 1.7-1.4 2v-2.7H7.1v7h1.4v-2.7zm6.3 2.7c1.2 0 2.1-.9 2.1-2.1v-2.1h-2.1v1.4h.7v.7c0 .4-.3.7-.7.7s-.7-.3-.7-.7v-2.8c0-.4.3-.7.7-.7s.7.3.7.7h1.4c0-1.2-.9-2.1-2.1-2.1s-2.1.9-2.1 2.1v2.8c0 1.2.9 2.1 2.1 2.1zM12 0c-1.9 0-3.5 1.6-3.5 3.5v.7H3L0 24h24L21 4.2h-5.5v-.7C15.5 1.6 13.9 0 12 0zM9.9 3.5c0-1.2.9-2.1 2.1-2.1 1.2 0 2.1.9 2.1 2.1v.7H9.9v-.7zm9.9 2.1l2.5 17H1.6l2.5-17h15.7z"/></svg>