<svg width="80" height="80" xmlns="http://www.w3.org/2000/svg"><path d="M80 19.346V16.68H68.007c-.736 0-1.333.597-1.333 1.333v2.297H54.948c.279-.707.423-1.46.428-2.221v-2.208c0-.736-.597-1.333-1.333-1.333h-18.88c-.354 0-.693.14-.943.39l-5.37 5.371H13.326v-2.296c0-.736-.597-1.333-1.333-1.333H0v2.666h10.66v23.986H0v2.665h11.993c.736 0 1.333-.597 1.333-1.333V41.63h5.109l.133.133-2.02 2.021c-.52.52-.52 1.364 0 1.884L35 64.12c.52.52 1.364.52 1.884 0l2.16-2.162a5.042 5.042 0 006.12-.8L58.302 48.02a5.098 5.098 0 00.66-6.389h7.666v3.033c0 .736.596 1.333 1.332 1.333h11.993v-2.665h-10.66l.047-23.986H80zM35.942 61.293l-2.79-2.789 2.932-2.932-1.884-1.884-2.932 2.932-2.665-2.665 2.94-2.94-1.884-1.884-2.94 2.931-2.665-2.665 2.948-2.947-1.885-1.885-2.943 2.96-2.805-2.798 5.596-5.597a2.433 2.433 0 013.436 0l13.137 13.139a2.428 2.428 0 010 3.434l-5.596 5.59zm20.477-15.16L43.28 59.273a2.425 2.425 0 01-2.207.658l2.344-2.34a5.09 5.09 0 00.004-7.199l-.004-.003-13.137-13.14a5.101 5.101 0 00-7.204 0l-2.628 2.619-.52-.518a1.33 1.33 0 00-.942-.39h-5.66V22.966l16.075.006c.354 0 .693-.14.943-.39l5.368-5.37h17.003v.875a3.558 3.558 0 01-3.553 3.554h-6.67a.697.697 0 00-.382-.056c-.353 0-.692.14-.942.39L30.56 32.583c-.52.52-.52 1.364 0 1.884l4.21 4.21a3.998 3.998 0 005.652 0l5.987-5.987 10.01 10.01a2.432 2.432 0 010 3.434zm10.22-7.17H56.451l-9.101-9.1a1.333 1.333 0 00-1.884 0l-6.93 6.928c-.52.52-1.363.52-1.884 0l-3.267-3.267 9.22-9.219h6.556a6.155 6.155 0 003.8-1.332h13.707l-.03 15.99zm-27.604 26.08l-3.056 3.055-3.056-3.055-1.884 1.884 3.998 3.998c.52.52 1.364.52 1.884 0l3.998-3.998-1.884-1.884z"/><path d="M52.358 57.05l-6.662 6.662 1.884 1.884 6.662-6.661-1.884-1.885zM33.314 8.685c-.354 0-.692.14-.942.39l-5.33 5.33 1.884 1.885 4.94-4.94h4.778V8.685h-5.33z"/></svg>