<svg width="30" height="30" xmlns="http://www.w3.org/2000/svg"><path d="M29.414 5.977H.586A.586.586 0 000 6.562v16.875c0 .324.262.586.586.586h28.828a.586.586 0 00.586-.585V6.563a.586.586 0 00-.586-.586zM1.172 22.852V21.21h11.191a.586.586 0 100-1.172H1.172V7.15h27.656v12.89H17.637a.586.586 0 100 1.172h11.191v1.64H1.172z"/><path d="M25.026 18.633a.586.586 0 00.586-.586c0-.675.55-1.224 1.224-1.224a.586.586 0 00.586-.586V10.95a.586.586 0 00-.586-.586 1.225 1.225 0 01-1.224-1.223.586.586 0 00-.586-.586H4.974a.586.586 0 00-.586.586c0 .674-.55 1.223-1.224 1.223a.586.586 0 00-.586.586v5.287c0 .324.262.586.586.586.675 0 1.224.55 1.224 1.224 0 .323.262.586.586.586h20.052zm-13.893-5.04A3.872 3.872 0 0115 9.728a3.872 3.872 0 013.867 3.867A3.871 3.871 0 0115 17.46a3.871 3.871 0 01-3.867-3.867zm13.38-3.866a2.405 2.405 0 001.737 1.737v4.26a2.404 2.404 0 00-1.737 1.737h-6.287a5.03 5.03 0 000-7.734h6.287zM5.487 17.46a2.404 2.404 0 00-1.737-1.737v-4.26a2.404 2.404 0 001.737-1.737h6.287a5.03 5.03 0 000 7.734H5.487z"/><path d="M6.855 13.008a.59.59 0 00-.585.586.59.59 0 00.585.586.59.59 0 00.586-.586.59.59 0 00-.586-.586zm16.29 1.172a.59.59 0 00.585-.586.59.59 0 00-.585-.586.59.59 0 00-.586.586.59.59 0 00.585.586zM15 20.04a.59.59 0 00-.414.17.59.59 0 00-.172.415.59.59 0 00.172.414.59.59 0 00.414.172.59.59 0 00.414-.172.59.59 0 00.172-.414.59.59 0 00-.172-.414.59.59 0 00-.414-.172z"/></svg>