<svg width="24" height="24" viewBox="0 0 24 24" xmlns="http://www.w3.org/2000/svg">
<path d="M12 0C12.6875 0 13.3516 0.0898438 13.9922 0.269531C14.6328 0.449219 15.2305 0.699219 15.7852 1.01953C16.3398 1.33984 16.8438 1.73047 17.2969 2.19141C17.75 2.65234 18.1406 3.16016 18.4688 3.71484C18.7969 4.26953 19.0508 4.86719 19.2305 5.50781C19.4102 6.14844 19.5 6.8125 19.5 7.5C19.5 8.03906 19.4375 8.55078 19.3125 9.03516C19.1875 9.51953 19 10.0078 18.75 10.5L12 24L5.25 10.5C5.00781 10.0156 4.82422 9.53125 4.69922 9.04688C4.57422 8.5625 4.50781 8.04688 4.5 7.5C4.5 6.8125 4.58984 6.14844 4.76953 5.50781C4.94922 4.86719 5.19922 4.26953 5.51953 3.71484C5.83984 3.16016 6.23047 2.65625 6.69141 2.20312C7.15234 1.75 7.66016 1.35938 8.21484 1.03125C8.76953 0.703125 9.36719 0.449219 10.0078 0.269531C10.6484 0.0898438 11.3125 0 12 0ZM17.5781 9.91406V9.90234L17.5898 9.89062C17.7852 9.52344 17.9336 9.13672 18.0352 8.73047C18.1367 8.32422 18.1875 7.91406 18.1875 7.5C18.1875 6.64844 18.0273 5.84766 17.707 5.09766C17.3867 4.34766 16.9414 3.69141 16.3711 3.12891C15.8008 2.56641 15.1445 2.125 14.4023 1.80469C13.6602 1.48438 12.8594 1.32031 12 1.3125C11.1484 1.3125 10.3477 1.47266 9.59766 1.79297C8.84766 2.11328 8.19141 2.55859 7.62891 3.12891C7.06641 3.69922 6.625 4.35547 6.30469 5.09766C5.98438 5.83984 5.82031 6.64062 5.8125 7.5C5.8125 7.91406 5.86328 8.32422 5.96484 8.73047C6.06641 9.13672 6.21484 9.52344 6.41016 9.89062V9.90234L6.42188 9.91406L12 21.0703L17.5781 9.91406ZM12 3.09375C12.6094 3.09375 13.1797 3.20703 13.7109 3.43359C14.2422 3.66016 14.7109 3.97656 15.1172 4.38281C15.5234 4.78906 15.8359 5.25391 16.0547 5.77734C16.2734 6.30078 16.3906 6.875 16.4062 7.5C16.4062 8.10938 16.293 8.67969 16.0664 9.21094C15.8398 9.74219 15.5234 10.2109 15.1172 10.6172C14.7109 11.0234 14.2461 11.3359 13.7227 11.5547C13.1992 11.7734 12.625 11.8906 12 11.9062C11.3906 11.9062 10.8203 11.793 10.2891 11.5664C9.75781 11.3398 9.28906 11.0234 8.88281 10.6172C8.47656 10.2109 8.16406 9.74609 7.94531 9.22266C7.72656 8.69922 7.60938 8.125 7.59375 7.5C7.59375 6.89062 7.70703 6.32031 7.93359 5.78906C8.16016 5.25781 8.47656 4.78906 8.88281 4.38281C9.28906 3.97656 9.75391 3.66406 10.2773 3.44531C10.8008 3.22656 11.375 3.10938 12 3.09375ZM12 10.5938C12.4297 10.5938 12.832 10.5156 13.207 10.3594C13.582 10.2031 13.9102 9.98047 14.1914 9.69141C14.4727 9.40234 14.6914 9.07422 14.8477 8.70703C15.0039 8.33984 15.0859 7.9375 15.0938 7.5C15.0938 7.07031 15.0156 6.66797 14.8594 6.29297C14.7031 5.91797 14.4805 5.58984 14.1914 5.30859C13.9023 5.02734 13.5742 4.80859 13.207 4.65234C12.8398 4.49609 12.4375 4.41406 12 4.40625C11.5703 4.40625 11.168 4.48438 10.793 4.64062C10.418 4.79688 10.0898 5.01953 9.80859 5.30859C9.52734 5.59766 9.30859 5.92578 9.15234 6.29297C8.99609 6.66016 8.91406 7.0625 8.90625 7.5C8.90625 7.92969 8.98438 8.33203 9.14062 8.70703C9.29688 9.08203 9.51953 9.41016 9.80859 9.69141C10.0977 9.97266 10.4258 10.1914 10.793 10.3477C11.1602 10.5039 11.5625 10.5859 12 10.5938Z"/>
</svg>
