<svg width="24" height="24" viewBox="0 0 24 24" xmlns="http://www.w3.org/2000/svg">
<path d="M24 14.4V9.6L21.12 8.88C21 8.52 20.88 8.16 20.64 7.8L22.2 5.16L18.84 1.8L16.2 3.36C15.84 3.24 15.48 3 15.12 2.88L14.4 0H9.6L8.88 2.88C8.52 3.12 8.16 3.24 7.8 3.36L5.16 1.8L1.8 5.16L3.36 7.8C3.24 8.16 3 8.52 2.88 8.88L0 9.6V14.4L2.88 15.12C3 15.48 3.12 15.84 3.36 16.2L1.8 18.84L5.16 22.2L7.8 20.64C8.16 20.76 8.52 21 8.88 21.12L9.6 24H14.4L15.12 21.12C15.48 21 15.84 20.88 16.2 20.64L18.84 22.2L22.2 18.84L20.64 16.2C20.76 15.84 21 15.48 21.12 15.12L24 14.4ZM12 15.6C9.96 15.6 8.4 14.04 8.4 12C8.4 9.96 9.96 8.4 12 8.4C14.04 8.4 15.6 9.96 15.6 12C15.6 14.04 14.04 15.6 12 15.6Z"/>
</svg>
