<svg xmlns="http://www.w3.org/2000/svg" width="24" height="24"><path d="M21.6 12.5h1.9c.3 0 .5-.2.5-.5s-.2-.5-.5-.5h-1.9l2.2-2.2c.2-.2.2-.5 0-.7-.2-.2-.5-.2-.7 0l-3 3h-6.9L18 6.8h4.5c.3 0 .5-.2.5-.5s-.2-.5-.5-.5H19L20.7 4c.2-.2.2-.5 0-.7s-.5-.2-.7 0L18.3 5V1.6c0-.3-.3-.6-.6-.6s-.5.2-.5.5V6l-4.7 4.7V3.9l3-3c.2-.2.2-.5 0-.7-.2-.2-.5-.2-.7 0l-2.2 2.2V.5c-.1-.3-.3-.5-.6-.5s-.5.2-.5.5v1.9L9.2.2c-.2-.3-.5-.3-.7 0-.2.2-.2.5 0 .7l3 3v6.9L6.8 6V1.6c0-.3-.3-.6-.5-.6-.3 0-.6.3-.6.6V5L4 3.3c-.2-.2-.5-.2-.7 0s-.2.5 0 .7L5 5.7H1.6c-.3 0-.6.3-.6.6s.2.5.5.5H6l4.7 4.7H3.9l-3-3c-.2-.2-.5-.2-.7 0-.2.2-.2.5 0 .7l2.2 2.2H.5c-.3.1-.5.3-.5.6s.2.5.5.5h1.9L.2 14.7c-.2.2-.2.5 0 .7.1.1.2.2.4.2s.3-.1.4-.2l3-3h6.9L6 17.2H1.6c-.3 0-.5.2-.5.5s.2.5.5.5H5L3.3 20c-.2.2-.2.5 0 .7.1.1.2.2.4.2.1 0 .3-.1.4-.2L5.7 19v3.4c0 .3.3.6.6.6s.5-.2.5-.5V18l4.7-4.7v6.9l-3 3c-.2.2-.2.5 0 .7.2.2.5.2.7 0l2.2-2.2v1.9c0 .3.2.5.5.5s.5-.2.5-.5v-1.9l2.2 2.2c.1.1.2.2.4.2.1 0 .3-.1.4-.2.2-.2.2-.5 0-.7l-3-3v-6.9l4.7 4.7v4.5c0 .3.2.5.5.5s.5-.2.5-.5V19l1.7 1.7c.1.1.2.2.4.2.1 0 .3-.1.4-.2.2-.2.2-.5 0-.7L19 18.3h3.4c.3 0 .5-.2.5-.5s-.2-.5-.5-.5H18l-4.7-4.7h6.9l3 3c.1.1.2.2.4.2.1 0 .3-.1.4-.2.2-.2.2-.5 0-.7l-2.4-2.4z"/></svg>