<svg xmlns="http://www.w3.org/2000/svg" width="24" height="24"><path d="M23.4 5l-1.7-1.7 2.1-2.1c.3-.3.3-.7 0-1-.3-.3-.7-.3-1 0l-2.1 2.1L19 .6c-.6-.6-1.6-.7-2.4-.3L13.4 2c-.8.4-.1-.1-12.9 12.6-.6.6-.7 1.7-.1 2.2l6.8 6.8s.3.4 1.1.4c.4 0 .9-.2 1.2-.5l11.8-11.8c.6-.6.7-.9 2.5-4.2.4-.9.3-1.8-.4-2.5zm-.9 1.8c0 .1.1-.2-1.7 3.2-.3.6.5-.3-12.4 12.5-.1.1-.3.1-.3.1-7.3-7.3-6.8-6.8-6.8-6.9 0-.1-.7.6 11.9-12 .4-.4.5-.4 3.9-2.2.3-.2.6-.1.8.1l1.7 1.7-1 1c-1.7-1-3.8.3-3.8 2.3 0 1.4 1.2 2.6 2.6 2.6 2 0 3.2-2.1 2.3-3.8l1-1L22.4 6c.2.2.2.5.1.8zm-3.9-.2c0 1-1.3 1.6-2 .8-.5-.5-.5-1.2 0-1.7.7-.7 2-.2 2 .9zM12.3 8l-7.5 7.5c-.3.3-.3.7 0 1 .3.3.7.3 1 0L13.3 9c.3-.3.3-.7 0-1-.3-.3-.7-.3-1 0zm0 5.3l-4.8 4.8c-.3.3-.3.7 0 1 .3.3.7.3 1 0l4.8-4.8c.3-.3.3-.7 0-1-.3-.2-.7-.2-1 0z"/></svg>