<svg width="80" height="80" xmlns="http://www.w3.org/2000/svg"><path d="M22.414 0l-3.01 3.01a1.604 1.604 0 00-.756-.206H2.223c-.907 0-1.642.735-1.642 1.642v16.425c0 .907.735 1.642 1.642 1.642h16.425c.907 0 1.642-.735 1.642-1.642V6.769l4.446-4.447L22.414 0zm-5.409 19.228H3.865V6.088h12.46l-5.89 5.89-2.123-2.123-2.323 2.322 3.285 3.285a1.643 1.643 0 002.323 0l5.408-5.408v9.174zm5.409 10.336l-3.01 3.011a1.605 1.605 0 00-.756-.207H2.223c-.907 0-1.642.736-1.642 1.643v16.424c0 .907.735 1.643 1.642 1.643h16.425c.907 0 1.642-.736 1.642-1.643V36.334l4.446-4.446-2.322-2.323zm-5.409 19.229H3.865v-13.14h12.46l-5.89 5.89-2.123-2.124-2.323 2.323 3.285 3.285a1.642 1.642 0 002.323 0l5.408-5.409v9.175zm5.409 8.694l-3.01 3.01a1.605 1.605 0 00-.756-.207H2.223c-.907 0-1.642.736-1.642 1.643v16.425c0 .907.735 1.642 1.642 1.642h16.425c.907 0 1.642-.735 1.642-1.642V64.255l4.446-4.446-2.322-2.322zm-5.409 19.228H3.865v-13.14h12.46l-5.89 5.89-2.123-2.124-2.323 2.323 3.285 3.285a1.643 1.643 0 002.323 0l5.408-5.409v9.175zM79.42 15.944H31.787v3.284h47.631v-3.285zm0-9.855H31.787v3.285h47.631V6.089zm0 39.419H31.787v3.285h47.631v-3.285zm0-9.855H31.787v3.285h47.631v-3.285zm0 37.777H31.787v3.285h47.631V73.43zm0-9.855H31.787v3.285h47.631v-3.285z"/></svg>