<svg width="80" height="80" xmlns="http://www.w3.org/2000/svg"><path d="M10.96 30.781h9.385v4.688H10.96V30.78zm18.006 0h9.385v4.688h-9.385V30.78zm18.006 0h9.385v4.688h-9.385V30.78zm-36.012 12.5h9.385v4.688H10.96V43.28zm18.006 0h9.385v4.688h-9.385V43.28zM10.96 55.938h9.385v4.687H10.96v-4.688zm18.006 0h9.385v4.687h-9.385v-4.688z"/><path d="M67.317 45.955V5.541H56.352V0h-4.688v5.541h-8.879V0h-4.687v5.541h-8.879V0h-4.687v5.541h-8.879V0h-4.687v5.541H0v66.647h48.115C51.225 76.89 56.569 80 62.625 80 72.205 80 80 72.22 80 62.656c0-7.94-5.374-14.652-12.683-16.701zM10.966 10.229v5.828h4.687V10.23h8.879v5.828h4.687V10.23h8.879v5.828h4.688V10.23h8.878v5.828h4.688V10.23h6.278v10.484H4.687V10.229h6.279zM4.688 67.5V25.4H62.63v19.913h-.005c-9.58 0-17.375 7.78-17.375 17.343 0 1.68.24 3.306.69 4.844H4.688zm57.937 7.813c-6.996 0-12.687-5.678-12.687-12.657C49.938 55.678 55.629 50 62.625 50c6.996 0 12.688 5.678 12.688 12.656 0 6.979-5.692 12.657-12.688 12.657z"/><path d="M64.969 54.873H60.28V65h10.13v-4.688h-5.44v-5.44z"/></svg>