<svg width="50" height="50" xmlns="http://www.w3.org/2000/svg"><path d="M42.678 32.322a24.902 24.902 0 00-9.5-5.959c3.787-2.608 6.275-6.973 6.275-11.91C39.453 6.483 32.97 0 25 0S10.547 6.484 10.547 14.453c0 4.937 2.488 9.302 6.276 11.91a24.903 24.903 0 00-9.5 5.96A24.837 24.837 0 000 50h3.906c0-11.631 9.463-21.094 21.094-21.094 11.631 0 21.094 9.463 21.094 21.094H50c0-6.678-2.6-12.956-7.322-17.678zM25 25c-5.816 0-10.547-4.731-10.547-10.547 0-5.816 4.732-10.547 10.547-10.547 5.816 0 10.547 4.731 10.547 10.547C35.547 20.27 30.816 25 25 25z"/></svg>