<svg width="120" height="120" viewBox="0 0 120 120" fill="none" xmlns="http://www.w3.org/2000/svg">
<path d="M0 0H120V120H0V0Z" fill="#F8F8F9"/>
<path fill-rule="evenodd" clip-rule="evenodd" d="M35.9938 30C35.9938 27.7909 37.7846 26 39.9938 26H63.8938C66.1029 26 67.8938 27.7909 67.8938 30V51.6H73.9948C75.4709 51.6 76.8271 52.4129 77.5227 53.7148L87.8537 73.0481L90.0175 64.1137C90.8864 60.5258 95.7375 59.9298 97.4492 63.2007L106.472 80.443C107.746 82.8767 106.244 85.8405 103.528 86.2524L89.9801 88.3071C87.2144 88.7265 84.8833 86.2503 85.4689 83.5149L86.4536 78.9152L79.2802 65.4909H19.65V79.5273H27.7236C29.0913 74.8216 33.4296 71.3818 38.575 71.3818C43.7204 71.3818 48.0587 74.8216 49.4264 79.5273H57.9486C59.3163 74.8216 63.6546 71.3818 68.8 71.3818C75.0427 71.3818 80.1 76.4469 80.1 82.6909C80.1 88.9349 75.0427 94 68.8 94C62.8386 94 57.9581 89.381 57.5304 83.5273H49.8446C49.4169 89.381 44.5364 94 38.575 94C32.6136 94 27.7331 89.381 27.3054 83.5273H19.65C17.4409 83.5273 15.65 81.7364 15.65 79.5273V61.112C12.9537 60.2623 11 57.7402 11 54.7636C11 51.0903 13.9755 48.1091 17.65 48.1091C20.1793 48.1091 22.3774 49.5216 23.5018 51.6H35.9938L35.9938 30ZM39.9938 51.6H63.8937L63.8938 30L39.9938 30L39.9938 51.6ZM24.248 55.6C23.9214 58.2051 22.0897 60.3432 19.65 61.112V61.4909L77.1427 61.4909L73.9948 55.6H24.248ZM17.65 52.1091C16.1883 52.1091 15 53.2957 15 54.7636C15 56.2315 16.1883 57.4182 17.65 57.4182C19.1117 57.4182 20.3 56.2315 20.3 54.7636C20.3 53.2957 19.1117 52.1091 17.65 52.1091ZM93.9051 65.0553L90.5126 79.0631L89.3803 84.3523L102.928 82.2976L93.9051 65.0553ZM38.575 75.3818C34.8555 75.3818 31.7807 78.1697 31.3316 81.7745C31.2943 82.0739 31.275 82.3797 31.275 82.6909C31.275 86.7295 34.5452 90 38.575 90C42.6048 90 45.875 86.7295 45.875 82.6909C45.875 82.3797 45.8557 82.0739 45.8184 81.7745C45.3693 78.1697 42.2945 75.3818 38.575 75.3818ZM68.8 75.3818C65.0805 75.3818 62.0057 78.1697 61.5566 81.7745C61.5193 82.0739 61.5 82.3797 61.5 82.6909C61.5 86.7295 64.7702 90 68.8 90C72.8298 90 76.1 86.7295 76.1 82.6909C76.1 78.6524 72.8298 75.3818 68.8 75.3818Z" fill="#D2131C"/>
</svg>
