<svg class="svg-list" xmlns="http://www.w3.org/2000/svg">
    <symbol id="icon-1" viewBox="0 0 80 80">
        <path d="M22.414 0l-3.01 3.01a1.604 1.604 0 00-.756-.206H2.223c-.907 0-1.642.735-1.642 1.642v16.425c0 .907.735 1.642 1.642 1.642h16.425c.907 0 1.642-.735 1.642-1.642V6.769l4.446-4.447L22.414 0zm-5.409 19.228H3.865V6.088h12.46l-5.89 5.89-2.123-2.123-2.323 2.322 3.285 3.285a1.643 1.643 0 002.323 0l5.408-5.408v9.174zm5.409 10.336l-3.01 3.011a1.605 1.605 0 00-.756-.207H2.223c-.907 0-1.642.736-1.642 1.643v16.424c0 .907.735 1.643 1.642 1.643h16.425c.907 0 1.642-.736 1.642-1.643V36.334l4.446-4.446-2.322-2.323zm-5.409 19.229H3.865v-13.14h12.46l-5.89 5.89-2.123-2.124-2.323 2.323 3.285 3.285a1.642 1.642 0 002.323 0l5.408-5.409v9.175zm5.409 8.694l-3.01 3.01a1.605 1.605 0 00-.756-.207H2.223c-.907 0-1.642.736-1.642 1.643v16.425c0 .907.735 1.642 1.642 1.642h16.425c.907 0 1.642-.735 1.642-1.642V64.255l4.446-4.446-2.322-2.322zm-5.409 19.228H3.865v-13.14h12.46l-5.89 5.89-2.123-2.124-2.323 2.323 3.285 3.285a1.643 1.643 0 002.323 0l5.408-5.409v9.175zM79.42 15.944H31.787v3.284h47.631v-3.285zm0-9.855H31.787v3.285h47.631V6.089zm0 39.419H31.787v3.285h47.631v-3.285zm0-9.855H31.787v3.285h47.631v-3.285zm0 37.777H31.787v3.285h47.631V73.43zm0-9.855H31.787v3.285h47.631v-3.285z"></path>
    </symbol>
    <symbol id="icon-10" viewBox="0 0 24 24">
        <path d="M17 1.5H7C5.6 1.5 4.5 2.6 4.5 4v16c0 1.4 1.1 2.5 2.5 2.5h10c1.4 0 2.5-1.1 2.5-2.5V4c0-1.4-1.1-2.5-2.5-2.5zM18.5 20c0 .8-.7 1.5-1.5 1.5H7c-.8 0-1.5-.7-1.5-1.5V4c0-.8.7-1.5 1.5-1.5h10c.8 0 1.5.7 1.5 1.5v16zm-6-2c0 .3-.2.5-.5.5s-.5-.2-.5-.5.2-.5.5-.5.5.2.5.5z"></path>
    </symbol>
    <symbol id="icon-11" viewBox="0 0 24 24">
        <path d="M20 3.5H4C2.6 3.5 1.5 4.6 1.5 6v12c0 1.4 1.1 2.5 2.5 2.5h16c1.4 0 2.5-1.1 2.5-2.5V6c0-1.4-1.1-2.5-2.5-2.5zm-16 1h16c.7 0 1.4.5 1.5 1.3L12 12.4 2.5 5.8c.1-.8.8-1.3 1.5-1.3zm16 15H4c-.8 0-1.5-.7-1.5-1.5V7l9.2 6.4c.1.1.2.1.3.1s.2 0 .3-.1L21.5 7v11c0 .8-.7 1.5-1.5 1.5z"></path>
    </symbol>
    <symbol id="icon-12" viewBox="0 0 24 24">
        <path d="M24 4.5v.996l-12 6-12-6V4.5h24zm-12 9.504l12-6V19.5H0V8.004l12 6z"></path>
    </symbol>
    <symbol id="icon-13" viewBox="0 0 24 24">
        <path d="M22.667 16.667c-1.66 0-3.267-.267-4.76-.76a1.337 1.337 0 00-1.354.326l-2.933 2.94a20.08 20.08 0 01-8.787-8.78l2.934-2.946a1.34 1.34 0 00.326-1.354c-.493-1.493-.76-3.1-.76-4.76C7.333.593 6.74 0 6 0H1.333C.6 0 0 .593 0 1.333 0 13.853 10.147 24 22.667 24c.74 0 1.333-.593 1.333-1.333V18c0-.74-.593-1.333-1.333-1.333z"></path>
    </symbol>
    <symbol id="icon-14" viewBox="0 0 24 24">
        <path d="M12 4.159c-5.294 0-9.856 3.12-11.952 7.623a.514.514 0 000 .435C2.144 16.721 6.706 19.841 12 19.841s9.856-3.12 11.952-7.624a.514.514 0 000-.435C21.856 7.28 17.294 4.16 12 4.16zm0 13.252a5.409 5.409 0 110-10.82 5.409 5.409 0 110 10.82z"></path><path d="M12 15.462a3.463 3.463 0 100-6.926 3.463 3.463 0 000 6.926z"></path>
    </symbol>
    <symbol id="icon-15" viewBox="0 0 24 24">
        <path d="M23.4 5l-1.7-1.7 2.1-2.1c.3-.3.3-.7 0-1-.3-.3-.7-.3-1 0l-2.1 2.1L19 .6c-.6-.6-1.6-.7-2.4-.3L13.4 2c-.8.4-.1-.1-12.9 12.6-.6.6-.7 1.7-.1 2.2l6.8 6.8s.3.4 1.1.4c.4 0 .9-.2 1.2-.5l11.8-11.8c.6-.6.7-.9 2.5-4.2.4-.9.3-1.8-.4-2.5zm-.9 1.8c0 .1.1-.2-1.7 3.2-.3.6.5-.3-12.4 12.5-.1.1-.3.1-.3.1-7.3-7.3-6.8-6.8-6.8-6.9 0-.1-.7.6 11.9-12 .4-.4.5-.4 3.9-2.2.3-.2.6-.1.8.1l1.7 1.7-1 1c-1.7-1-3.8.3-3.8 2.3 0 1.4 1.2 2.6 2.6 2.6 2 0 3.2-2.1 2.3-3.8l1-1L22.4 6c.2.2.2.5.1.8zm-3.9-.2c0 1-1.3 1.6-2 .8-.5-.5-.5-1.2 0-1.7.7-.7 2-.2 2 .9zM12.3 8l-7.5 7.5c-.3.3-.3.7 0 1 .3.3.7.3 1 0L13.3 9c.3-.3.3-.7 0-1-.3-.3-.7-.3-1 0zm0 5.3l-4.8 4.8c-.3.3-.3.7 0 1 .3.3.7.3 1 0l4.8-4.8c.3-.3.3-.7 0-1-.3-.2-.7-.2-1 0z"></path>
    </symbol>
    <symbol id="icon-16" viewBox="0 0 24 24">
        <path d="M8.5 15.6c.8.3 1.4 1.1 1.4 2v.7h1.4v-.7c0-1.1-.6-2.2-1.4-2.8.9-.6 1.4-1.7 1.4-2.8v-.7H9.9v.7c0 .9-.6 1.7-1.4 2v-2.7H7.1v7h1.4v-2.7zm6.3 2.7c1.2 0 2.1-.9 2.1-2.1v-2.1h-2.1v1.4h.7v.7c0 .4-.3.7-.7.7s-.7-.3-.7-.7v-2.8c0-.4.3-.7.7-.7s.7.3.7.7h1.4c0-1.2-.9-2.1-2.1-2.1s-2.1.9-2.1 2.1v2.8c0 1.2.9 2.1 2.1 2.1zM12 0c-1.9 0-3.5 1.6-3.5 3.5v.7H3L0 24h24L21 4.2h-5.5v-.7C15.5 1.6 13.9 0 12 0zM9.9 3.5c0-1.2.9-2.1 2.1-2.1 1.2 0 2.1.9 2.1 2.1v.7H9.9v-.7zm9.9 2.1l2.5 17H1.6l2.5-17h15.7z"></path>
    </symbol>
    <symbol id="icon-17" viewBox="0 0 24 24">
        <path d="M21.6 12.5h1.9c.3 0 .5-.2.5-.5s-.2-.5-.5-.5h-1.9l2.2-2.2c.2-.2.2-.5 0-.7-.2-.2-.5-.2-.7 0l-3 3h-6.9L18 6.8h4.5c.3 0 .5-.2.5-.5s-.2-.5-.5-.5H19L20.7 4c.2-.2.2-.5 0-.7s-.5-.2-.7 0L18.3 5V1.6c0-.3-.3-.6-.6-.6s-.5.2-.5.5V6l-4.7 4.7V3.9l3-3c.2-.2.2-.5 0-.7-.2-.2-.5-.2-.7 0l-2.2 2.2V.5c-.1-.3-.3-.5-.6-.5s-.5.2-.5.5v1.9L9.2.2c-.2-.3-.5-.3-.7 0-.2.2-.2.5 0 .7l3 3v6.9L6.8 6V1.6c0-.3-.3-.6-.5-.6-.3 0-.6.3-.6.6V5L4 3.3c-.2-.2-.5-.2-.7 0s-.2.5 0 .7L5 5.7H1.6c-.3 0-.6.3-.6.6s.2.5.5.5H6l4.7 4.7H3.9l-3-3c-.2-.2-.5-.2-.7 0-.2.2-.2.5 0 .7l2.2 2.2H.5c-.3.1-.5.3-.5.6s.2.5.5.5h1.9L.2 14.7c-.2.2-.2.5 0 .7.1.1.2.2.4.2s.3-.1.4-.2l3-3h6.9L6 17.2H1.6c-.3 0-.5.2-.5.5s.2.5.5.5H5L3.3 20c-.2.2-.2.5 0 .7.1.1.2.2.4.2.1 0 .3-.1.4-.2L5.7 19v3.4c0 .3.3.6.6.6s.5-.2.5-.5V18l4.7-4.7v6.9l-3 3c-.2.2-.2.5 0 .7.2.2.5.2.7 0l2.2-2.2v1.9c0 .3.2.5.5.5s.5-.2.5-.5v-1.9l2.2 2.2c.1.1.2.2.4.2.1 0 .3-.1.4-.2.2-.2.2-.5 0-.7l-3-3v-6.9l4.7 4.7v4.5c0 .3.2.5.5.5s.5-.2.5-.5V19l1.7 1.7c.1.1.2.2.4.2.1 0 .3-.1.4-.2.2-.2.2-.5 0-.7L19 18.3h3.4c.3 0 .5-.2.5-.5s-.2-.5-.5-.5H18l-4.7-4.7h6.9l3 3c.1.1.2.2.4.2.1 0 .3-.1.4-.2.2-.2.2-.5 0-.7l-2.4-2.4z"></path>
    </symbol>
    <symbol id="icon-18" viewBox="0 0 24 24">
        <path d="M11.9 10.7c-1.4-2.5-2.7-4.6-2.8-4.6-.1-.2-.3-.3-.5-.3-.3 0-.5.1-.6.3 0 0-1.4 2.1-2.8 4.6C3.4 14 2.4 16.5 2.4 18c0 1.7.6 3.3 1.8 4.4 1.2 1 2.7 1.6 4.4 1.6 1.7 0 3.2-.6 4.3-1.6 1.2-1.1 1.8-2.7 1.8-4.4 0-1.5-.9-4-2.8-7.3zM8.6 22.6c-2.8 0-4.8-1.9-4.8-4.6 0-2.2 3-7.5 4.8-10.2 1.7 2.7 4.8 8 4.8 10.2-.1 2.7-2 4.6-4.8 4.6zM19.9 3C19.1 1.5 18.3.3 18.3.3c-.2-.2-.4-.3-.6-.3s-.5.1-.6.3c0 .1-.8 1.3-1.6 2.7-1.1 2.1-1.7 3.5-1.7 4.5 0 1.1.4 2.1 1.2 2.8.7.7 1.7 1 2.8 1 1.1 0 2-.4 2.8-1 .8-.7 1.2-1.7 1.2-2.8-.2-.9-.8-2.4-1.9-4.5zm-2.2 6.9c-1.5 0-2.5-1-2.5-2.4 0-1 1.4-3.6 2.5-5.5 1.1 1.9 2.5 4.4 2.5 5.5 0 1.4-1 2.4-2.5 2.4z"></path>
    </symbol>
    <symbol id="icon-19" viewBox="0 0 24 24">
        <path d="M19.2 16.7c-1.4 0-2.2.5-2.8 1-.6.4-1 .7-2 .7s-1.4-.3-2-.7c-.6-.5-1.4-1-2.8-1s-2.2.5-2.8 1c-.6.4-1 .7-2 .7s-1.4-.3-2-.7c-.6-.5-1.4-1-2.8-1v1.4c1 0 1.4.3 2 .7.6.5 1.4 1 2.8 1s2.2-.5 2.8-1c.6-.4 1-.7 2-.7s1.4.3 2 .7c.6.5 1.4 1 2.8 1s2.2-.5 2.8-1c.6-.4 1-.7 2-.7s1.4.3 2 .7c.6.5 1.4 1 2.8 1v-1.4c-1 0-1.4-.3-2-.7-.6-.5-1.4-1-2.8-1zm0-8.3c-1.4 0-2.2.5-2.8 1-.6.4-1 .7-2 .7s-1.4-.3-2-.7c-.6-.5-1.4-1-2.8-1s-2.2.5-2.8 1c-.6.4-1 .7-2 .7s-1.4-.3-2-.7c-.6-.5-1.4-1-2.8-1v1.4c1 0 1.4.3 2 .7.6.5 1.4 1 2.8 1s2.2-.5 2.8-1c.6-.4 1-.7 2-.7s1.4.3 2 .7c.6.5 1.4 1 2.8 1s2.2-.5 2.8-1c.6-.4 1-.7 2-.7s1.4.3 2 .7c.6.5 1.4 1 2.8 1v-1.4c-1 0-1.4-.3-2-.7-.6-.5-1.4-1-2.8-1zm0 4.1c-1.4 0-2.2.5-2.8 1-.6.4-1 .7-2 .7s-1.4-.3-2-.7c-.6-.5-1.4-1-2.8-1s-2.2.5-2.8 1c-.6.4-1 .7-2 .7s-1.4-.3-2-.7c-.6-.5-1.4-1-2.8-1v1.4c1 0 1.4.3 2 .7.6.5 1.4 1 2.8 1s2.2-.5 2.8-1c.6-.4 1-.7 2-.7s1.4.3 2 .7c.6.5 1.4 1 2.8 1s2.2-.5 2.8-1c.6-.4 1-.7 2-.7s1.4.3 2 .7c.6.5 1.4 1 2.8 1v-1.4c-1 0-1.4-.3-2-.7-.6-.5-1.4-1-2.8-1zM22 5.2c-.6-.5-1.4-1-2.8-1s-2.2.5-2.8 1c-.6.4-1 .7-2 .7s-1.4-.3-2-.7c-.6-.5-1.4-1-2.8-1s-2.2.5-2.8 1c-.6.4-1 .7-2 .7s-1.4-.3-2-.7c-.6-.5-1.4-1-2.8-1v1.4c1 0 1.4.3 2 .7.6.5 1.4 1 2.8 1s2.2-.5 2.8-1c.6-.4 1-.7 2-.7s1.4.3 2 .7c.6.5 1.4 1 2.8 1s2.2-.5 2.8-1c.6-.4 1-.7 2-.7s1.4.3 2 .7c.6.5 1.4 1 2.8 1V5.9c-1 0-1.4-.3-2-.7z"></path>
    </symbol>
    <symbol id="icon-2" viewBox="0 0 80 80">
        <path d="M80 19.346V16.68H68.007c-.736 0-1.333.597-1.333 1.333v2.297H54.948c.279-.707.423-1.46.428-2.221v-2.208c0-.736-.597-1.333-1.333-1.333h-18.88c-.354 0-.693.14-.943.39l-5.37 5.371H13.326v-2.296c0-.736-.597-1.333-1.333-1.333H0v2.666h10.66v23.986H0v2.665h11.993c.736 0 1.333-.597 1.333-1.333V41.63h5.109l.133.133-2.02 2.021c-.52.52-.52 1.364 0 1.884L35 64.12c.52.52 1.364.52 1.884 0l2.16-2.162a5.042 5.042 0 006.12-.8L58.302 48.02a5.098 5.098 0 00.66-6.389h7.666v3.033c0 .736.596 1.333 1.332 1.333h11.993v-2.665h-10.66l.047-23.986H80zM35.942 61.293l-2.79-2.789 2.932-2.932-1.884-1.884-2.932 2.932-2.665-2.665 2.94-2.94-1.884-1.884-2.94 2.931-2.665-2.665 2.948-2.947-1.885-1.885-2.943 2.96-2.805-2.798 5.596-5.597a2.433 2.433 0 013.436 0l13.137 13.139a2.428 2.428 0 010 3.434l-5.596 5.59zm20.477-15.16L43.28 59.273a2.425 2.425 0 01-2.207.658l2.344-2.34a5.09 5.09 0 00.004-7.199l-.004-.003-13.137-13.14a5.101 5.101 0 00-7.204 0l-2.628 2.619-.52-.518a1.33 1.33 0 00-.942-.39h-5.66V22.966l16.075.006c.354 0 .693-.14.943-.39l5.368-5.37h17.003v.875a3.558 3.558 0 01-3.553 3.554h-6.67a.697.697 0 00-.382-.056c-.353 0-.692.14-.942.39L30.56 32.583c-.52.52-.52 1.364 0 1.884l4.21 4.21a3.998 3.998 0 005.652 0l5.987-5.987 10.01 10.01a2.432 2.432 0 010 3.434zm10.22-7.17H56.451l-9.101-9.1a1.333 1.333 0 00-1.884 0l-6.93 6.928c-.52.52-1.363.52-1.884 0l-3.267-3.267 9.22-9.219h6.556a6.155 6.155 0 003.8-1.332h13.707l-.03 15.99zm-27.604 26.08l-3.056 3.055-3.056-3.055-1.884 1.884 3.998 3.998c.52.52 1.364.52 1.884 0l3.998-3.998-1.884-1.884z"></path><path d="M52.358 57.05l-6.662 6.662 1.884 1.884 6.662-6.661-1.884-1.885zM33.314 8.685c-.354 0-.692.14-.942.39l-5.33 5.33 1.884 1.885 4.94-4.94h4.778V8.685h-5.33z"></path>
    </symbol>
    <symbol id="icon-20" viewBox="0 0 29 29">
        <path d="M0 24V0h24v9h-1.4V1.4H1.4v21.2H9V24H0zm6.5-8l-1.7 1-.8-1.2 1.7-1-1.7-.5.4-1.3 3.1.8 3.1-1.8-3.1-1.8-3.1.8-.3-1.3 1.7-.5-1.8-1L4.7 7l1.7 1L6 6.3l1.4-.4.8 3.1 3.1 1.8V7.2L9.1 4.9l1-1 1.2 1.2v-2h1.4v2L13.9 4l1 1-2.2 2.2v3.6L15.8 9l.8-3.1 1.4.4-.5 1.7 1.7-1 .8 1.2-1.7 1-1.7 1-3.2 1.8 2.1 1.2V15l-2.8-1.8v2.3h-1.4v-2.3L8.2 15l-.8 3.1-1.4-.4.5-1.7zM29 20.5v1.9h-6.4V29h-2.2v-6.5H14v-1.9h6.4V14h2.2v6.5H29z"></path>
    </symbol>
    <symbol id="icon-21" viewBox="0 0 24 24">
        <path d="M21 1.4H3L0 10v.8c0 1.2.6 2.2 1.4 2.9v8.9h21.2v-8.9c.8-.7 1.4-1.7 1.4-2.8V10l-3-8.6zm1.3 8.1h-4.1L17 2.9h3l2.3 6.6zM1.4 10.9h4.2c0 1.2-1 2.1-2.1 2.1s-2.1-1-2.1-2.1zm9.9 0c0 1.2-1 2.1-2.1 2.1-1.2 0-2.1-1-2.1-2.1h4.2zM7.2 9.5l1.2-6.6h2.9v6.6H7.2zm5.5 0V2.8h2.9l1.2 6.6h-4.1zm4.2 1.4c0 1.2-1 2.1-2.1 2.1s-2.1-1-2.1-2.1h4.2zM4 2.8h2.9L5.8 9.5H1.7L4 2.8zm17.2 18.4H2.8v-6.9c.2 0 .5.1.7.1 1.2 0 2.2-.6 2.8-1.4.7.8 1.7 1.4 2.9 1.4s2.2-.6 2.8-1.4c.6.9 1.7 1.4 2.8 1.4s2.2-.6 2.8-1.4c.6.9 1.7 1.4 2.8 1.4.2 0 .5 0 .7-.1v6.9zm-.7-8.2c-1.2 0-2.1-1-2.1-2.1h4.2c0 1.1-1 2.1-2.1 2.1z"></path>
    </symbol>
    <symbol id="icon-22" viewBox="0 0 24 24">
        <path d="M20 11H7.4l6-6L12 3.6 3.6 12l8.4 8.4 1.4-1.4-6-6H20z"></path>
    </symbol>
    <symbol id="icon-23" viewBox="0 0 22 22">
        <path d="M17.4 2.7h-1.8V.8h-2v1.8H8.3V.8h-2v1.8H4.6C3 2.7 1.8 3.9 1.8 5.5v12.9c0 1.6 1.3 2.8 2.8 2.8h12.8c1.6 0 2.8-1.3 2.8-2.8V5.5c.1-1.6-1.2-2.8-2.8-2.8zm.9 15.6c0 .5-.4.8-.8.8H4.6c-.5 0-.8-.4-.8-.8v-8.2h14.5v8.2zM3.8 8.2V5.5c0-.5.4-.8.8-.8h1.7v1.8h2V4.7h5.3v1.8h2V4.7h1.8c.5 0 .8.4.8.8v2.7H3.8z"></path>
    </symbol>
    <symbol id="icon-24" viewBox="0 0 24 24">
        <g clip-path="url(#clip0)"><path d="M24 4.59H4.233L3.516.002H0v1.406h2.312l3.062 19.595h1.37A2.204 2.204 0 008.796 24a2.204 2.204 0 002.053-2.997h5.801A2.204 2.204 0 0018.702 24a2.204 2.204 0 002.202-2.202 2.204 2.204 0 00-2.201-2.201H6.577l-.368-2.36h15.216L24 4.591zM9.592 21.798a.796.796 0 01-1.59 0 .796.796 0 011.59 0zm9.906 0a.796.796 0 01-1.59 0 .796.796 0 011.59 0zM5.99 15.83L4.453 5.997h17.826l-2.002 9.833H5.989z"></path><path d="M11.22 8.43h1.407v4.968H11.22V8.429zm2.813 0h1.406v4.968h-1.406V8.429zm2.813 0h1.406v4.968h-1.406V8.429zm-8.438 0h1.406v4.968H8.408V8.429z"></path></g><defs><clippath id="clip0"><path d="M0 0h24v24H0z"></path></clippath></defs>
    </symbol>
    <symbol id="icon-25" viewBox="0 0 35 24">
        <path d="M7.796 17.594c.95 0 1.804.409 2.395 1.058a3.233 3.233 0 012.396-1.058c1.239 0 2.317.696 2.858 1.715h7.948V8.116a.83.83 0 01.833-.827H31.8c.366 0 .69.237.797.584l1.864 6.01c.025.078.037.16.037.243v6.01a.83.83 0 01-.834.827h-2.957c-.087 1.69-1.5 3.037-3.224 3.037-1.725 0-3.138-1.348-3.225-3.037h-8.447c-.087 1.69-1.5 3.037-3.224 3.037-.95 0-1.804-.409-2.396-1.058A3.233 3.233 0 017.796 24c-1.78 0-3.229-1.437-3.229-3.203 0-1.766 1.449-3.203 3.229-3.203zm23.388-8.651h-2.538v4.356h3.89l-1.352-4.356zm-3.701 13.403c.86 0 1.561-.695 1.561-1.549s-.7-1.55-1.561-1.55-1.562.696-1.562 1.55c0 .854.7 1.55 1.562 1.55zm0-4.752c1.239 0 2.317.696 2.858 1.715h2.49v-4.357h-5.018a.83.83 0 01-.834-.826V8.943h-1.92v9.74a3.233 3.233 0 012.424-1.09zm-14.896 4.752c.86 0 1.561-.695 1.561-1.549s-.7-1.55-1.561-1.55c-.862 0-1.562.696-1.562 1.55 0 .854.7 1.55 1.562 1.55zm-4.791 0c.861 0 1.562-.695 1.562-1.549s-.7-1.55-1.562-1.55c-.861 0-1.562.696-1.562 1.55 0 .854.7 1.55 1.562 1.55z"></path><path d="M1.212 8.67l4.25-3.623a.834.834 0 01.24-.143l8.602-3.331a.84.84 0 01.397-.051l3.961.443c.308.034.57.235.683.521l2.41 6.125a.822.822 0 01-.146.843l-2.611 2.988a.834.834 0 01-.327.229L10.068 16a.84.84 0 01-.275.056l-5.6.191a.834.834 0 01-.805-.525L.978 9.597a.823.823 0 01.234-.928zm12.922-5.256l-7.05 2.73 3.154 8.016 7.05-2.73-3.154-8.016zm3.841.139l-2.089-.234 2.756 7.005 1.377-1.576-2.044-5.195zM4.727 14.575l3.834-.13-2.905-7.383-2.91 2.48 1.98 5.033z"></path>
    </symbol>
    <symbol id="icon-26" viewBox="0 0 30 30">
        <path d="M29.414 5.977H.586A.586.586 0 000 6.562v16.875c0 .324.262.586.586.586h28.828a.586.586 0 00.586-.585V6.563a.586.586 0 00-.586-.586zM1.172 22.852V21.21h11.191a.586.586 0 100-1.172H1.172V7.15h27.656v12.89H17.637a.586.586 0 100 1.172h11.191v1.64H1.172z"></path><path d="M25.026 18.633a.586.586 0 00.586-.586c0-.675.55-1.224 1.224-1.224a.586.586 0 00.586-.586V10.95a.586.586 0 00-.586-.586 1.225 1.225 0 01-1.224-1.223.586.586 0 00-.586-.586H4.974a.586.586 0 00-.586.586c0 .674-.55 1.223-1.224 1.223a.586.586 0 00-.586.586v5.287c0 .324.262.586.586.586.675 0 1.224.55 1.224 1.224 0 .323.262.586.586.586h20.052zm-13.893-5.04A3.872 3.872 0 0115 9.728a3.872 3.872 0 013.867 3.867A3.871 3.871 0 0115 17.46a3.871 3.871 0 01-3.867-3.867zm13.38-3.866a2.405 2.405 0 001.737 1.737v4.26a2.404 2.404 0 00-1.737 1.737h-6.287a5.03 5.03 0 000-7.734h6.287zM5.487 17.46a2.404 2.404 0 00-1.737-1.737v-4.26a2.404 2.404 0 001.737-1.737h6.287a5.03 5.03 0 000 7.734H5.487z"></path><path d="M6.855 13.008a.59.59 0 00-.585.586.59.59 0 00.585.586.59.59 0 00.586-.586.59.59 0 00-.586-.586zm16.29 1.172a.59.59 0 00.585-.586.59.59 0 00-.585-.586.59.59 0 00-.586.586.59.59 0 00.585.586zM15 20.04a.59.59 0 00-.414.17.59.59 0 00-.172.415.59.59 0 00.172.414.59.59 0 00.414.172.59.59 0 00.414-.172.59.59 0 00.172-.414.59.59 0 00-.172-.414.59.59 0 00-.414-.172z"></path>
    </symbol>
    <symbol id="icon-27" viewBox="0 0 50 50">
        <path d="M42.678 32.322a24.902 24.902 0 00-9.5-5.959c3.787-2.608 6.275-6.973 6.275-11.91C39.453 6.483 32.97 0 25 0S10.547 6.484 10.547 14.453c0 4.937 2.488 9.302 6.276 11.91a24.903 24.903 0 00-9.5 5.96A24.837 24.837 0 000 50h3.906c0-11.631 9.463-21.094 21.094-21.094 11.631 0 21.094 9.463 21.094 21.094H50c0-6.678-2.6-12.956-7.322-17.678zM25 25c-5.816 0-10.547-4.731-10.547-10.547 0-5.816 4.732-10.547 10.547-10.547 5.816 0 10.547 4.731 10.547 10.547C35.547 20.27 30.816 25 25 25z"></path>
    </symbol>
    <symbol id="icon-28-t" viewBox="0 0 20 20">
        <path d="M2.8 11H13l-4.8 4.8 1.4 1.4 7.2-7.2-7.2-7.2-1.4 1.4L13 9H2.8z"></path>
    </symbol>
    <symbol id="icon-28" viewBox="0 0 20 20">
        <path d="M16.8 9H6.6l4.8-4.8L10 2.8 2.8 10l7.2 7.2 1.4-1.4L6.6 11h10.2z"></path>
    </symbol>
    <symbol id="icon-29" viewBox="0 0 20 20">
        <path d="M18.6 6.5c-.7-1.7-2-3.1-3.6-4s-3.5-1.2-5.3-1C7.8 1.8 6.1 2.7 4.9 4L2.7 6V3.3c0-.6-.4-1-1-1s-1 .4-1 1v5.3c0 .1.1.1.1.2 0 0 0 .1.1.1.1.2.2.2.3.3l.1.1h5.3c.6 0 1-.4 1-1s-.4-1-1-1H4.2l2-1.9c1-1 2.3-1.6 3.7-1.8 1.4-.2 2.8.1 4.1.7s2.2 1.8 2.8 3c.6 1.3.7 2.7.4 4.1-.3 1.4-1.1 2.6-2.1 3.5-1.1.9-2.4 1.4-3.8 1.5-1.4.1-2.8-.3-4-1.1-1.2-.8-1.9-1.9-1.9-2.9 0-.6-.4-1-1-1s-1 .4-1 1c0 1.7 1 3.4 2.8 4.6 1.4.9 3.1 1.4 4.7 1.4h.5c1.8-.1 3.6-.8 5-2s2.4-2.8 2.8-4.6c.3-1.7.1-3.6-.6-5.3z"></path>
    </symbol>
    <symbol id="icon-3" viewBox="0 0 80 80">
        <path d="M10.96 30.781h9.385v4.688H10.96V30.78zm18.006 0h9.385v4.688h-9.385V30.78zm18.006 0h9.385v4.688h-9.385V30.78zm-36.012 12.5h9.385v4.688H10.96V43.28zm18.006 0h9.385v4.688h-9.385V43.28zM10.96 55.938h9.385v4.687H10.96v-4.688zm18.006 0h9.385v4.687h-9.385v-4.688z"></path><path d="M67.317 45.955V5.541H56.352V0h-4.688v5.541h-8.879V0h-4.687v5.541h-8.879V0h-4.687v5.541h-8.879V0h-4.687v5.541H0v66.647h48.115C51.225 76.89 56.569 80 62.625 80 72.205 80 80 72.22 80 62.656c0-7.94-5.374-14.652-12.683-16.701zM10.966 10.229v5.828h4.687V10.23h8.879v5.828h4.687V10.23h8.879v5.828h4.688V10.23h8.878v5.828h4.688V10.23h6.278v10.484H4.687V10.229h6.279zM4.688 67.5V25.4H62.63v19.913h-.005c-9.58 0-17.375 7.78-17.375 17.343 0 1.68.24 3.306.69 4.844H4.688zm57.937 7.813c-6.996 0-12.687-5.678-12.687-12.657C49.938 55.678 55.629 50 62.625 50c6.996 0 12.688 5.678 12.688 12.656 0 6.979-5.692 12.657-12.688 12.657z"></path><path d="M64.969 54.873H60.28V65h10.13v-4.688h-5.44v-5.44z"></path>
    </symbol>
    <symbol id="icon-4" viewBox="0 0 32 32">
        <path d="M3.9 5.5L16 17.6 28.1 5.5l3.8 3.8L16 25.1.1 9.2l3.8-3.7z"></path>
    </symbol>
    <symbol id="icon-5" viewBox="0 0 20 20">
        <path d="M11.8 20H8.2v-8.2H0V8.2h8.2V0h3.6v8.2H20v3.6h-8.2V20z"></path>
    </symbol>
    <symbol id="icon-6" viewBox="0 0 28 28">
        <path d="M23.9 18.1a13.947 13.947 0 00-5.32-3.337 8.09 8.09 0 003.514-6.67C22.094 3.632 18.463 0 14 0 9.537 0 5.906 3.63 5.906 8.094a8.09 8.09 0 003.515 6.67A13.947 13.947 0 004.1 18.1 13.909 13.909 0 000 28h2.188c0-6.513 5.299-11.813 11.812-11.813 6.513 0 11.813 5.3 11.813 11.813H28a13.91 13.91 0 00-4.1-9.9zM14 14a5.913 5.913 0 01-5.906-5.906A5.913 5.913 0 0114 2.188a5.913 5.913 0 015.906 5.906A5.913 5.913 0 0114 14z"></path>
    </symbol>
    <symbol id="icon-7" viewBox="0 0 28 28">
        <path d="M24.39 1.867H11.376V0H26.25v28H11.375v-1.867h13.016V1.867z"></path><path d="M13.76 21L21 14l-7.24-7-1.188 1.148 5.128 4.934H1.75v1.836H17.7l-5.128 4.934L13.76 21z"></path>
    </symbol>
    <symbol id="icon-8" viewBox="0 0 16 16">
        <path d="M16 5l-8 8-8-8h16z"></path>
    </symbol>
    <symbol id="icon-9" viewBox="0 0 80 80">
        <path d="M30 63.7L6.3 40l7-7.1L30 49.6l36.7-36.7 7 7.1z"></path>
    </symbol>
    <symbol id="icon-burger" viewBox="0 0 24 24">
        <path d="M0 2.5h24v5.182H0V2.5zm0 6.909h24v5.182H0V9.409zm0 6.909h24V21.5H0v-5.182z"></path>
    </symbol>
    <symbol id="icon-caret" viewBox="0 0 16 16">
        <path d="M8 13.1L-.1 5 2 2.9l6 6 6-6L16.1 5z"></path>
    </symbol>
    <symbol id="icon-check" viewBox="0 0 80 80">
        <path d="M71.758 21.758L30 63.555 8.242 41.758l3.516-3.516L30 56.445l38.242-38.203 3.516 3.516z"></path>
    </symbol>
    <symbol id="icon-clear" viewBox="0 0 24 24">
        <path d="M19.4 6L18 4.6l-6 6-6-6L4.6 6l6 6-6 6L6 19.4l6-6 6 6 1.4-1.4-6-6z"></path>
    </symbol>
    <symbol id="icon-clock" viewBox="0 0 80 80">
        <path d="M40 80c-3.69 0-7.232-.476-10.625-1.429a41.09 41.09 0 01-9.554-4.017 38.357 38.357 0 01-8.08-6.25 42.194 42.194 0 01-6.25-8.08c-1.756-2.947-3.11-6.132-4.062-9.554C.476 47.247 0 43.69 0 40c0-3.69.476-7.232 1.429-10.625a41.09 41.09 0 014.017-9.554 38.355 38.355 0 016.25-8.08 42.194 42.194 0 018.08-6.25c2.947-1.756 6.132-3.11 9.554-4.062C32.753.476 36.31 0 40 0c3.69 0 7.232.476 10.625 1.429a41.09 41.09 0 019.554 4.017 38.355 38.355 0 018.08 6.25 42.193 42.193 0 016.25 8.08c1.756 2.947 3.11 6.132 4.062 9.554C79.524 32.753 80 36.31 80 40c0 3.69-.476 7.232-1.429 10.625a41.09 41.09 0 01-4.017 9.554 38.357 38.357 0 01-6.25 8.08 42.193 42.193 0 01-8.08 6.25c-2.947 1.756-6.132 3.11-9.554 4.062C47.247 79.524 43.69 80 40 80zm0-74.286c-4.732 0-9.167.893-13.304 2.679-4.137 1.786-7.767 4.24-10.892 7.366-3.125 3.125-5.58 6.756-7.367 10.893C6.652 30.789 5.745 35.238 5.715 40c0 4.732.893 9.167 2.679 13.304 1.786 4.136 4.24 7.767 7.366 10.892 3.125 3.125 6.756 5.58 10.893 7.367 4.137 1.785 8.586 2.693 13.348 2.723 4.732 0 9.167-.893 13.304-2.679 4.136-1.786 7.767-4.24 10.892-7.366 3.125-3.125 5.58-6.756 7.367-10.893 1.785-4.137 2.693-8.586 2.723-13.348 0-4.732-.893-9.167-2.679-13.304-1.786-4.137-4.24-7.767-7.366-10.892-3.125-3.125-6.756-5.58-10.893-7.367C49.211 6.652 44.762 5.745 40 5.715zM40 40V17.143h-5.714v28.571h22.857V40H40z"></path>
    </symbol>
    <symbol id="icon-edit" viewBox="0 0 24 24">
        <path d="M17.703 4c.318 0 .615.055.891.164.276.109.521.266.734.469.214.203.378.44.492.711.115.271.174.568.18.891a2.326 2.326 0 01-.297 1.195c-.094.167-.208.328-.344.484s-.287.315-.453.477l-3.312-3.305c.161-.161.315-.31.461-.445a2.402 2.402 0 01.993-.563A2.4 2.4 0 0117.703 4zm-3.281 2.266l3.297 3.297-7.836 7.82L4 19.984l2.719-5.93 7.703-7.788z"></path>
    </symbol>
    <symbol id="icon-exit" viewBox="0 0 18 18">
        <path d="M2.32 16.8h8.368V18H1.124V0h9.563v1.2H2.32v15.6z"></path><path d="M12.221 13.5L16.875 9l-4.654-4.5-.764.738 3.297 3.172H5.625v1.18h9.129l-3.297 3.172.764.738z"></path>
    </symbol>
    <symbol id="icon-filter" viewBox="0 0 24 24">
        <path d="M4.5 19.195l1.91-1.91 1.055 1.055-3.715 3.726L.035 18.34l1.055-1.055L3 19.195V1.5h1.5v17.695zM9 15v-1.5h6V15H9zm0-4.5V9h10.5v1.5H9zm0-6h15V6H9V4.5z" fill="#2C2E2F"></path>
    </symbol>
    <symbol id="icon-gear" viewBox="0 0 24 24">
        <path d="M24 14.4V9.6l-2.88-.72c-.12-.36-.24-.72-.48-1.08l1.56-2.64-3.36-3.36-2.64 1.56c-.36-.12-.72-.36-1.08-.48L14.4 0H9.6l-.72 2.88c-.36.24-.72.36-1.08.48L5.16 1.8 1.8 5.16 3.36 7.8c-.12.36-.36.72-.48 1.08L0 9.6v4.8l2.88.72c.12.36.24.72.48 1.08L1.8 18.84l3.36 3.36 2.64-1.56c.36.12.72.36 1.08.48L9.6 24h4.8l.72-2.88c.36-.12.72-.24 1.08-.48l2.64 1.56 3.36-3.36-1.56-2.64c.12-.36.36-.72.48-1.08L24 14.4zm-12 1.2c-2.04 0-3.6-1.56-3.6-3.6S9.96 8.4 12 8.4s3.6 1.56 3.6 3.6-1.56 3.6-3.6 3.6z"></path>
    </symbol>
    <symbol id="icon-left" viewBox="0 0 20 20">
        <path d="M15.9 2.5L13.8.4 4.1 10l9.7 9.6 2.1-2.1L8.4 10l7.5-7.5z"></path>
    </symbol>
    <symbol id="icon-loupe" viewBox="0 0 20 20">
        <path d="M18.9 17.5l-3.7-3.7c1-1.3 1.6-2.9 1.6-4.7 0-4.2-3.4-7.7-7.7-7.7-4.2 0-7.7 3.4-7.7 7.7 0 4.2 3.4 7.7 7.7 7.7 1.8 0 3.4-.6 4.7-1.6l3.7 3.7 1.4-1.4zM3.5 9.2C3.5 6 6 3.5 9.2 3.5s5.7 2.5 5.7 5.7c0 1.5-.6 2.9-1.6 3.9l-.1.1c-1 1-2.4 1.6-3.9 1.6-3.3 0-5.8-2.5-5.8-5.6z"></path>
    </symbol>
    <symbol id="icon-map" viewBox="0 0 24 24">
        <path d="M12 0c.688 0 1.352.09 1.992.27.64.18 1.238.43 1.793.75.555.32 1.059.71 1.512 1.171.453.461.844.97 1.172 1.524.328.555.582 1.152.761 1.793.18.64.27 1.304.27 1.992 0 .54-.063 1.05-.188 1.535a7.223 7.223 0 01-.562 1.465L12 24 5.25 10.5a7.364 7.364 0 01-.55-1.453c-.126-.485-.192-1-.2-1.547 0-.688.09-1.352.27-1.992.18-.64.43-1.238.75-1.793.32-.555.71-1.059 1.171-1.512.461-.453.97-.844 1.524-1.172A7.463 7.463 0 0110.008.27C10.648.09 11.313 0 12 0zm5.578 9.914v-.012l.012-.011a5.087 5.087 0 00.598-2.391 6.103 6.103 0 00-1.816-4.371 6.376 6.376 0 00-1.97-1.324A6.14 6.14 0 0012 1.313a6.103 6.103 0 00-4.371 1.816 6.376 6.376 0 00-1.324 1.969A6.14 6.14 0 005.813 7.5a5.09 5.09 0 00.598 2.39v.012l.01.012L12 21.07l5.578-11.156zM12 3.094c.61 0 1.18.113 1.71.34a4.425 4.425 0 012.345 2.343c.218.524.336 1.098.351 1.723 0 .61-.113 1.18-.34 1.71a4.427 4.427 0 01-2.343 2.345 4.737 4.737 0 01-1.723.351c-.61 0-1.18-.113-1.71-.34a4.426 4.426 0 01-2.345-2.343A4.736 4.736 0 017.594 7.5c0-.61.113-1.18.34-1.71a4.425 4.425 0 012.343-2.345A4.737 4.737 0 0112 3.094zm0 7.5c.43 0 .832-.078 1.207-.235.375-.156.703-.379.984-.668.282-.289.5-.617.657-.984.156-.367.238-.77.246-1.207 0-.43-.078-.832-.235-1.207a2.933 2.933 0 00-.668-.984c-.289-.282-.617-.5-.984-.657A3.2 3.2 0 0012 4.406c-.43 0-.832.078-1.207.235a2.933 2.933 0 00-.984.668c-.282.289-.5.617-.657.984A3.2 3.2 0 008.906 7.5c0 .43.078.832.235 1.207.156.375.379.703.668.984.289.282.617.5.984.657.367.156.77.238 1.207.246z"></path>
    </symbol>
    <symbol id="icon-noresult" viewBox="0 0 80 80">
        <path d="M47.197 0C29.109 0 14.393 14.716 14.393 32.803a32.654 32.654 0 007.514 20.871L0 75.582 4.418 80l21.908-21.908a32.651 32.651 0 0020.87 7.515C65.285 65.607 80 50.89 80 32.803 80 14.716 65.284 0 47.197 0zm0 59.358c-14.643 0-26.556-11.912-26.556-26.555 0-14.642 11.913-26.555 26.556-26.555 14.642 0 26.555 11.913 26.555 26.555 0 14.643-11.913 26.556-26.555 26.556zM62.108 22.31L51.615 32.803l10.493 10.494-4.418 4.418-10.493-10.493-10.494 10.493-4.418-4.419 10.493-10.493L32.285 22.31l4.419-4.418 10.493 10.493L57.69 17.892l4.418 4.418z"></path>
    </symbol>
    <symbol id="icon-phone" viewBox="0 0 24 24">
        <path d="M18.832 14.215c.344 0 .672.062.985.187.312.125.593.313.843.563l2.579 2.578c.242.242.425.52.55.832.125.313.192.645.2.996 0 .344-.063.672-.188.985a2.497 2.497 0 01-.562.843l-.165.164c-.421.422-.808.797-1.16 1.125a5.933 5.933 0 01-1.101.82c-.383.22-.809.391-1.278.516-.468.125-1.027.184-1.675.176-.977 0-1.98-.152-3.012-.457a16.55 16.55 0 01-3.07-1.266 22.54 22.54 0 01-3-1.922A25.626 25.626 0 016 17.93a27.337 27.337 0 01-2.414-2.79 20.877 20.877 0 01-1.898-3A17.7 17.7 0 01.446 9.083C.14 8.059-.008 7.074 0 6.129c0-.649.055-1.203.164-1.664.11-.461.278-.883.504-1.266.227-.383.5-.746.82-1.09.32-.343.696-.73 1.126-1.16L2.8.762c.242-.242.52-.43.832-.563C3.946.066 4.278 0 4.63 0c.344 0 .672.066.985.2.312.132.593.32.843.562L9.035 3.34c.243.242.426.52.551.832.125.312.192.644.2.996 0 .344-.06.648-.176.914a3.737 3.737 0 01-.996 1.336 9.376 9.376 0 00-.575.527c-.18.18-.324.352-.433.516-.11.164-.168.355-.176.574 0 .297.105.55.316.762l6.457 6.457c.211.21.465.316.762.316.203 0 .39-.058.563-.175.171-.118.347-.262.527-.434.18-.172.355-.36.527-.563a4.19 4.19 0 01.598-.574c.227-.18.469-.324.727-.433.257-.11.566-.168.925-.176zM17.86 22.5c.562 0 1.03-.05 1.406-.152a3.61 3.61 0 001.031-.457c.313-.203.61-.453.89-.75.282-.297.614-.633.997-1.008.21-.211.316-.465.316-.762 0-.14-.054-.305-.164-.492a4.238 4.238 0 00-.445-.61 11.467 11.467 0 00-.598-.644c-.21-.21-.43-.422-.656-.633a71.07 71.07 0 00-.598-.55 12.642 12.642 0 01-.433-.41 1.052 1.052 0 00-.774-.317.978.978 0 00-.562.176 3.616 3.616 0 00-.516.433c-.172.172-.348.36-.527.563-.18.203-.383.394-.61.574-.226.18-.468.324-.726.434a2.626 2.626 0 01-1.91-.012 2.498 2.498 0 01-.844-.563L6.68 10.863a2.456 2.456 0 01-.55-.832 2.828 2.828 0 01-.2-.996c0-.344.059-.648.176-.914a3.737 3.737 0 01.996-1.336c.203-.172.394-.351.574-.539.18-.187.324-.36.434-.516.109-.156.168-.343.175-.562 0-.305-.105-.563-.316-.773a13.462 13.462 0 01-.398-.422 97.5 97.5 0 00-.551-.598 24.623 24.623 0 00-.633-.656 11.675 11.675 0 00-.656-.61 3.88 3.88 0 00-.598-.433A1.3 1.3 0 004.63 1.5c-.297 0-.55.105-.762.316l-.996.996c-.289.29-.539.586-.75.891-.21.305-.367.645-.468 1.02-.102.375-.157.843-.164 1.406 0 .875.14 1.777.421 2.707.282.93.676 1.86 1.184 2.789.508.93 1.106 1.844 1.793 2.742a25.808 25.808 0 002.25 2.567 23.707 23.707 0 002.566 2.226 21.925 21.925 0 002.743 1.758c.93.5 1.851.887 2.765 1.16a9.532 9.532 0 002.649.422z"></path>
    </symbol>
    <symbol id="icon-right" viewBox="0 0 20 20">
        <path d="M6.3.4L4.1 2.5l7.5 7.5-7.5 7.5 2.2 2.1 9.6-9.6L6.3.4z"></path>
    </symbol>
</svg>
