<svg width="120" height="120" viewBox="0 0 120 120" fill="none" xmlns="http://www.w3.org/2000/svg">
<path d="M0 0H120V120H0V0Z" fill="#F8F8F9"/>
<path d="M81.2133 68.7867C77.9457 65.5193 74.0565 63.1004 69.8132 61.6362C74.3579 58.506 77.3438 53.2673 77.3438 47.3438C77.3438 37.7804 69.5633 30 60 30C50.4367 30 42.6562 37.7804 42.6562 47.3438C42.6562 53.2673 45.6421 58.506 50.187 61.6362C45.9436 63.1004 42.0544 65.5193 38.7868 68.7867C33.1206 74.4531 30 81.9867 30 90H34.6875C34.6875 76.0426 46.0426 64.6875 60 64.6875C73.9574 64.6875 85.3125 76.0426 85.3125 90H90C90 81.9867 86.8794 74.4531 81.2133 68.7867ZM60 60C53.0214 60 47.3438 54.3225 47.3438 47.3438C47.3438 40.365 53.0214 34.6875 60 34.6875C66.9786 34.6875 72.6562 40.365 72.6562 47.3438C72.6562 54.3225 66.9786 60 60 60Z" fill="#D2131C"/>
</svg>
